<svg width="256" height="256" viewBox="0 0 256 256" xmlns="http://www.w3.org/2000/svg">
  <defs>
    <linearGradient id="pinggoGradient" x1="0" y1="0" x2="1" y2="1">
      <stop offset="0%" stop-color="#34D399"/>
      <stop offset="100%" stop-color="#10B981"/>
    </linearGradient>
  </defs>
  <circle cx="128" cy="128" r="10" fill="url(#pinggoGradient)"/>

  <path
    d="M76 80c0-11 9-20 20-20h64c11 0 20 9 20 20v44c0 11-9 20-20 20h-34l-18 18c-3 3-8 0.9-8-3.4V144H96c-11 0-20-9-20-20V80z"
    fill="#ECFEFF"
  />

  <circle cx="112" cy="110" r="7" fill="#10B981"/>
  <circle cx="128" cy="110" r="7" fill="#10B981"/>
  <circle cx="144" cy="110" r="7" fill="#10B981"/>

  <text
    x="128"
    y="195"
    text-anchor="middle"
    font-family="system-ui, -apple-system, BlinkMacSystemFont, 'Segoe UI', sans-serif"
    font-size="28"
    fill="#ECFEFF"
    font-weight="700"
  >
    Pinggo
  </text>
</svg>
